<?xml version="1.0" encoding="UTF-8"?>
<!DOCTYPE svg PUBLIC "-//W3C//DTD SVG 1.1//EN" "http://www.w3.org/Graphics/SVG/1.1/DTD/svg11.dtd">
<!-- Creator: CorelDRAW 2018 (64 Bit Versão de avaliação) -->
<svg xmlns="http://www.w3.org/2000/svg" xml:space="preserve" width="180mm" height="180mm" version="1.1" style="shape-rendering:geometricPrecision; text-rendering:geometricPrecision; image-rendering:optimizeQuality; fill-rule:evenodd; clip-rule:evenodd"
viewBox="0 0 18000 18000"
 xmlns:xlink="http://www.w3.org/1999/xlink">
 <defs>
  <style type="text/css">
   <![CDATA[
    .fil0 {fill:none}
    .fil3 {fill:#FEFEFE}
    .fil1 {fill:#072548}
    .fil2 {fill:#F9644C}
   ]]>
  </style>
 </defs>
 <g id="Camada_x0020_1">
  <metadata id="CorelCorpID_0Corel-Layer"/>
  <rect class="fil0" width="18000" height="18000"/>
  <path class="fil1" d="M1633.78 15878.23c432.83,327.55 1581.47,816.83 2197.33,1060.62 3114.89,1233.06 8036.85,972.12 9326.62,-2490.3 329.57,-884.73 399.77,-1926.52 104.79,-2879.33 -1343.8,-4340.59 -8067.24,-4259.55 -8789.84,-7652.89 -216.23,-1015.44 210.82,-2004.56 727.66,-2473.24 1613.82,-1463.45 4873.66,-1105.29 6426.23,1752.7 450.32,828.96 797.13,2261.46 959.58,2375.92 289.9,-97.23 182.2,-450.54 184.4,-805.67 5.3,-856.77 55.38,-2252.13 13.47,-2994.43 -3316.52,-2046.22 -8631.32,-2258.14 -10532.32,992.01 -466.51,797.59 -731.68,1901.72 -520.77,2998.08 539.36,2803.64 3427.36,3857.47 5924.72,5090.52 1407.27,694.83 3621.42,1815.4 3206.31,4000.41 -369.13,1942.98 -2532.74,2824.76 -4770.52,2140.44 -2061.51,-630.41 -3638.78,-2859.18 -4297.02,-4814.08 -51.37,-152.56 -94.81,-602.15 -326.27,-559.41 -231.26,42.7 -120.97,365.66 -87.83,808.53 84.66,1131.61 125.86,2326.55 253.46,3450.12z"/>
  <g id="_2012374401712">
   <path class="fil2" d="M14416.47 16949.3c-31.61,290.24 -144.49,372.45 -213.24,662.19 372.9,-52.47 469.23,-145.59 783.59,-281.46 460.63,-199.08 1407.88,225.2 2338.54,-719.35 335.07,-340.06 610.13,-878.69 500.23,-1554.79 -99.87,-614.41 -477.92,-1007.12 -819.33,-1242.69 -1590.94,-1097.72 -3783.95,214.41 -3432.66,1903.71 133.17,640.41 475.37,922.45 842.87,1232.39z"/>
   <g>
    <circle class="fil3" cx="15670.97" cy="15327.8" r="352.88"/>
    <circle class="fil3" cx="16758.08" cy="15327.8" r="352.88"/>
    <circle class="fil3" cx="14628.18" cy="15327.8" r="352.88"/>
   </g>
  </g>
 </g>
</svg>
