<?xml version="1.0" encoding="UTF-8"?>
<!DOCTYPE svg PUBLIC "-//W3C//DTD SVG 1.1//EN" "http://www.w3.org/Graphics/SVG/1.1/DTD/svg11.dtd">
<!-- Creator: CorelDRAW 2018 (64 Bit Versão de avaliação) -->
<svg xmlns="http://www.w3.org/2000/svg" xml:space="preserve" width="297mm" height="210mm" version="1.1" style="shape-rendering:geometricPrecision; text-rendering:geometricPrecision; image-rendering:optimizeQuality; fill-rule:evenodd; clip-rule:evenodd"
viewBox="0 0 29700 21000"
 xmlns:xlink="http://www.w3.org/1999/xlink">
 <defs>
  <style type="text/css">
   <![CDATA[
    .fil0 {fill:none}
    .fil7 {fill:#FEFEFE}
    .fil2 {fill:#072547}
    .fil1 {fill:#072548}
    .fil4 {fill:#F65C45}
    .fil3 {fill:#F65D46}
    .fil6 {fill:#F9644C}
    .fil5 {fill:#FDFDFD}
   ]]>
  </style>
 </defs>
 <g id="Camada_x0020_1">
  <metadata id="CorelCorpID_0Corel-Layer"/>
  <rect class="fil0" width="29700" height="21000"/>
  <g id="_2012373451280">
   <path class="fil1" d="M1381.04 13680.75c268.87,203.47 982.4,507.41 1364.97,658.85 1934.94,765.97 4992.42,603.87 5793.62,-1546.95 204.72,-549.59 248.33,-1196.74 65.09,-1788.62 -834.76,-2696.34 -5011.3,-2646 -5460.18,-4753.91 -134.32,-630.79 130.96,-1245.22 452.02,-1536.36 1002.49,-909.09 3027.48,-686.6 3991.92,1088.76 279.74,514.94 495.17,1404.8 596.09,1475.9 180.08,-60.39 113.18,-279.87 114.54,-500.47 3.3,-532.22 34.41,-1399.01 8.37,-1860.12 -2060.19,-1271.09 -5361.71,-1402.74 -6542.59,616.23 -289.79,495.46 -454.51,1181.33 -323.5,1862.38 335.05,1741.6 2129.05,2396.23 3680.39,3162.19 874.18,431.63 2249.6,1127.72 1991.73,2485.03 -229.3,1206.96 -1573.31,1754.72 -2963.41,1329.62 -1280.59,-391.6 -2260.38,-1776.1 -2669.27,-2990.47 -31.91,-94.77 -58.89,-374.05 -202.68,-347.5 -143.65,26.53 -75.14,227.15 -54.56,502.25 52.59,702.95 78.19,1445.24 157.45,2143.19z"/>
   <path class="fil2" d="M12804.37 10824.82c4.75,417.21 0.51,836.9 0.32,1254.38 -0.28,631.55 80.6,791.5 -162.97,1082.43 -371.82,444.13 -1167.2,724.18 -1709.11,196.81 -483.65,-470.67 -318.46,-1380.44 99.47,-1804.53 332.33,-337.24 1122.98,-668.17 1772.29,-729.09zm-2.31 -314.51c-1137.42,388.86 -3720.96,603.49 -3639.27,2452.93 64.07,1450.16 1858.31,1730.47 2834.29,1093.07 249.82,-163.15 430.84,-321.76 612.65,-534.08 63.4,-74.03 130.17,-120.56 184.37,-188.66 55.96,367.3 117.51,601.93 331.15,779.74 547.92,456.01 1566.07,201.47 2097.83,-237.25 135.07,-111.43 235.66,-166.09 197.84,-329.51 -233.04,12.71 -633.09,456.57 -963.18,151.09 -195.81,-181.2 -128.23,-879.58 -127.69,-1193.03 1.49,-857.96 13.28,-1729.41 -1.08,-2586 -14.79,-881.91 -343.08,-1327.84 -955.7,-1617.07 -1217.34,-574.72 -3500.61,-241.59 -3683.21,965.25 -122.5,809.58 1165.66,1087.84 1262.61,155.48 41.8,-402.06 19.76,-754.32 311.66,-973.64 252.89,-190.01 722.61,-246.67 1051.19,-71.27 587.05,313.4 523.38,1333.73 486.54,2132.95z"/>
   <path class="fil1" d="M20854.94 8185.06c-187.83,-33.12 -1879.08,-42.96 -1994,0 44.39,242.58 181.47,74.11 536.67,250.2 624.55,309.62 159.66,1264.68 -33.36,1790.94 -103.8,283 -837.6,2190.7 -921.36,2302.72 -392.17,-1023.47 -973.55,-2323.74 -1418.62,-3391.09 -80.85,-193.88 -165.6,-464.82 -4.15,-632.78 62.67,-65.18 146.67,-109.7 254.65,-136.55 338.57,-84.18 255.28,19.62 293.78,-150.72 -81.39,-92.07 -427.69,-53.79 -573.85,-54.13l-2324.41 1.94c-229.53,46.21 -36.1,159.19 86.21,194.88 577.2,168.47 810.86,1129.08 1112.3,1831.77 128.16,298.75 1680.58,3799.98 1782.19,4112.93 83.18,256.21 -439.8,1150.43 -589.39,1309.31 -568.19,603.5 -839.01,-78.77 -1309.47,-200.78 -566.93,-147.03 -1103.55,324.35 -1024.09,886.45 115.85,819.45 1582.72,1093.27 2420,-43.06 487.35,-661.42 892.19,-1825.87 1237.92,-2689.51 377.52,-943.07 737.96,-1875.11 1102.01,-2826.1 181.57,-474.29 382.11,-931.58 560,-1404.41 121.03,-321.72 286.56,-706.27 571.18,-900.79 159.11,-108.74 259.78,-51.95 235.79,-251.22z"/>
   <path class="fil3" d="M24327.07 8316.27l850.84 2.02 1.16 4415.38c-23.64,2291.46 2477.48,1726.32 3083.41,1081.64 112.84,-120.05 306.33,-260.42 231.65,-459.51 -196.89,84.69 -548.4,526.71 -1144.49,417.71 -746.92,-136.59 -625.54,-1052.18 -624.36,-1759.76l3.14 -3595.07 1687.41 -13.36c215.13,-391.21 -140.11,-276.34 -744.18,-276.52l-946.12 0.4 -1.66 -1771.89c-87.88,52.74 -165.49,178.03 -249.52,271.13 -447.03,495.29 -857.61,939.47 -1494.59,1222.11 -666.89,295.93 -698.72,141.27 -652.69,465.72z"/>
   <path class="fil4" d="M21244.34 8675.92c176.6,282.96 646.87,-158.56 646.09,1112.61 -0.35,578.11 -0.5,1156.25 0.07,1734.36 0.55,562.85 23.2,1178.65 -2.98,1735.33 -18.96,402.75 -141.49,655.68 -524.88,762.07 -214.15,59.43 -272.23,-12.89 -286.99,185.96 128.21,97.52 1401.76,49.05 1552.29,49.14 429.8,0.26 1215.87,44.88 1603.74,-13.24 6.79,-247.96 -114.46,-170.41 -348.17,-244.47 -572.12,-181.32 -453.84,-868.58 -452.68,-1427.63l-0.75 -3730.51c-0.72,-1002.04 68.91,-910.89 -318.88,-795.22l-1686.06 478.17c-140.28,37.95 -152.26,24.84 -180.8,153.43z"/>
   <path class="fil5" d="M12804.37 10824.82c-649.31,60.92 -1439.96,391.85 -1772.29,729.09 -417.93,424.09 -583.12,1333.86 -99.47,1804.53 541.91,527.37 1337.29,247.32 1709.11,-196.81 243.57,-290.93 162.69,-450.88 162.97,-1082.43 0.19,-417.48 4.43,-837.17 -0.32,-1254.38z"/>
   <g>
    <path class="fil6" d="M21396.31 6876.11c-19.64,180.29 -89.76,231.36 -132.47,411.35 231.65,-32.6 291.49,-90.44 486.76,-174.84 286.14,-123.67 874.57,139.89 1452.69,-446.86 208.14,-211.24 379,-545.83 310.74,-965.82 -62.04,-381.67 -296.88,-625.62 -508.97,-771.95 -988.27,-681.9 -2350.56,133.19 -2132.34,1182.57 82.73,397.82 295.3,573.02 523.59,765.55z"/>
    <g>
     <circle class="fil7" cx="22175.6" cy="5868.85" r="219.21"/>
     <circle class="fil7" cx="22850.9" cy="5868.85" r="219.21"/>
     <circle class="fil7" cx="21527.82" cy="5868.85" r="219.21"/>
    </g>
   </g>
  </g>
 </g>
</svg>
